# xmcd
# Track frame offsets:
# 150
# 18414
# 31271
# 48526
# 68432
# 84525
# 105839
# 123993
# 143372
# 162036
# 181078
# 196133
# 216082
# 235451
# 252969
#
# Disc length: 3665 seconds
# Revision: 0
# Processed by: cddbd v1.5.1PL0 Copyright (c) Steve Scherf et al.
# Submitted via: VisiTrax 2.9.10.228 - For more info visit www.synapsa.com
#
DISCID=b60e4f0f
DTITLE=Various Artist - CB60312
DYEAR=1900
DGENRE=Karaoke
TTITLE0=Jackson, Alan and Jimmy - It's Five O'clock Somewhere
TTITLE1=Montgomery, John - Four-Wheel Drive
TTITLE2=Loveless, Patty - Lovin' All Night
TTITLE3=McGraw, Tim - Real Good Man
TTITLE4=Azar, Steve - One Good Reason Why
TTITLE5=Austin, Sherrie - Streets Of Heaven
TTITLE6=Jewell, Buddy - Help Pour Out The Rain (Lacey's Song)
TTITLE7=McBride, Martina - This One's For The Girls
TTITLE8=Allan, Gary - Tough Little Boys
TTITLE9=Green, Pat - Wave On Wave
TTITLE10=Messina, Jo Dee - Wishing Well
TTITLE11=Urban, Keith - Who Wouldn't Wanna Be Me
TTITLE12=Turner, Josh - Long Black Train
TTITLE13=Carpenter, Mary - Flesh And Blood
TTITLE14=Atkins, Rodney - Honesty (Write Me A List)
EXTD=
EXTT0=
EXTT1=
EXTT2=
EXTT3=
EXTT4=
EXTT5=
EXTT6=
EXTT7=
EXTT8=
EXTT9=
EXTT10=
EXTT11=
EXTT12=
EXTT13=
EXTT14=
PLAYORDER=
